<?xml version="1.0" encoding="UTF-8" standalone="no"?>
<!-- Created with Inkscape (http://www.inkscape.org/) -->

<svg
   xmlns:dc="http://purl.org/dc/elements/1.1/"
   xmlns:cc="http://creativecommons.org/ns#"
   xmlns:rdf="http://www.w3.org/1999/02/22-rdf-syntax-ns#"
   xmlns:svg="http://www.w3.org/2000/svg"
   xmlns="http://www.w3.org/2000/svg"
   xmlns:xlink="http://www.w3.org/1999/xlink"
   xmlns:sodipodi="http://sodipodi.sourceforge.net/DTD/sodipodi-0.dtd"
   xmlns:inkscape="http://www.inkscape.org/namespaces/inkscape"
   width="300"
   height="300"
   viewBox="0 0 281.25 281.25"
   id="svg192014"
   version="1.1"
   inkscape:version="0.92.2 (5c3e80d, 2017-08-06)"
   inkscape:export-filename="/home/tigert/git/aerogear-site/tigert-work.github.io/images/logo_aerogear_push.png"
   inkscape:export-xdpi="96"
   inkscape:export-ydpi="96"
   sodipodi:docname="icon_digger.svg">
  <defs
     id="defs192016">
    <linearGradient
       inkscape:collect="always"
       id="linearGradient1424">
      <stop
         style="stop-color:#6c97a3;stop-opacity:1;"
         offset="0"
         id="stop1420" />
      <stop
         style="stop-color:#6c97a3;stop-opacity:0;"
         offset="1"
         id="stop1422" />
    </linearGradient>
    <inkscape:path-effect
       effect="simplify"
       id="path-effect1364"
       is_visible="true"
       steps="1"
       threshold="0.0012609"
       smooth_angles="360"
       helper_size="0"
       simplify_individual_paths="false"
       simplify_just_coalesce="false"
       simplifyindividualpaths="false"
       simplifyJustCoalesce="false" />
    <clipPath
       id="clipPath10040"
       clipPathUnits="userSpaceOnUse">
      <path
         inkscape:connector-curvature="0"
         id="path10038"
         d="M 0,595.28 H 841.89 V 0 H 0 Z" />
    </clipPath>
    <clipPath
       id="clipPath10040-6"
       clipPathUnits="userSpaceOnUse">
      <path
         inkscape:connector-curvature="0"
         id="path10038-0"
         d="M 0,595.28 H 841.89 V 0 H 0 Z" />
    </clipPath>
    <inkscape:path-effect
       is_visible="true"
       id="path-effect7649"
       effect="spiro" />
    <inkscape:path-effect
       is_visible="true"
       id="path-effect7647"
       effect="spiro" />
    <linearGradient
       id="linearGradient7503"
       inkscape:collect="always">
      <stop
         id="stop7499"
         offset="0"
         style="stop-color:#ffffff;stop-opacity:1;" />
      <stop
         id="stop7501"
         offset="1"
         style="stop-color:#ffffff;stop-opacity:0;" />
    </linearGradient>
    <inkscape:path-effect
       is_visible="true"
       id="path-effect7216"
       effect="spiro" />
    <inkscape:path-effect
       effect="spiro"
       id="path-effect7228"
       is_visible="true" />
    <linearGradient
       gradientTransform="translate(0,1.4062499)"
       y2="331.11908"
       x2="-1053.1405"
       y1="-157.77895"
       x1="-1120.7362"
       gradientUnits="userSpaceOnUse"
       id="linearGradient7547"
       xlink:href="#linearGradient7503"
       inkscape:collect="always" />
    <filter
       inkscape:collect="always"
       style="color-interpolation-filters:sRGB"
       id="filter1416"
       x="-0.10070436"
       width="1.2014087"
       y="-0.093931332"
       height="1.1878627">
      <feGaussianBlur
         inkscape:collect="always"
         stdDeviation="11.268357"
         id="feGaussianBlur1418" />
    </filter>
    <linearGradient
       inkscape:collect="always"
       xlink:href="#linearGradient1424"
       id="linearGradient1426"
       x1="-375.31711"
       y1="262.71313"
       x2="-232.84586"
       y2="-42.109226"
       gradientUnits="userSpaceOnUse" />
  </defs>
  <sodipodi:namedview
     id="base"
     pagecolor="#ffffff"
     bordercolor="#666666"
     borderopacity="0.13333333"
     inkscape:pageopacity="0.0"
     inkscape:pageshadow="2"
     inkscape:zoom="1"
     inkscape:cx="-123.96099"
     inkscape:cy="80.530217"
     inkscape:document-units="mm"
     inkscape:current-layer="layer1"
     showgrid="false"
     units="px"
     inkscape:showpageshadow="false"
     borderlayer="true"
     inkscape:window-width="1920"
     inkscape:window-height="1016"
     inkscape:window-x="0"
     inkscape:window-y="27"
     inkscape:window-maximized="1"
     inkscape:snap-perpendicular="true"
     inkscape:snap-tangential="true"
     inkscape:snap-page="true"
     inkscape:snap-global="false" />
  <metadata
     id="metadata192019">
    <rdf:RDF>
      <cc:Work
         rdf:about="">
        <dc:format>image/svg+xml</dc:format>
        <dc:type
           rdf:resource="http://purl.org/dc/dcmitype/StillImage" />
        <dc:title></dc:title>
      </cc:Work>
    </rdf:RDF>
  </metadata>
  <g
     inkscape:label="Layer 1"
     inkscape:groupmode="layer"
     id="layer1"
     transform="translate(0,-771.1121)">
    <path
       style="fill:url(#linearGradient1426);fill-opacity:1;fill-rule:evenodd;stroke:none;stroke-width:4.76915455;stroke-linecap:butt;stroke-linejoin:miter;stroke-miterlimit:4;stroke-dasharray:none;stroke-opacity:1;filter:url(#filter1416)"
       d="m -300.49609,4.3183594 c -5.43033,0.7240426 -26.06533,26.0652196 -13.39453,47.0624996 -17.24636,15.44986 -36.26288,31.609079 -31.94727,40.699219 -18.16469,20.296082 -42.80263,45.318322 -60.97852,62.908202 l -5.62695,3.64844 c -10.54876,-10.11956 -20.44884,-20.49111 -29.71484,-31.10547 0,0 -58.87634,58.36631 -63.9961,63.99805 -5.11977,5.63174 -20.99169,49.66196 -2.56054,92.66797 37.37429,22.01493 90.10742,-8.19336 90.10742,-8.19336 l 63.48633,-69.62891 c -12.69058,-9.21222 -24.69842,-18.69575 -36.04688,-28.4375 l 0.0625,-0.0254 3.92383,-6.69531 c 14.90941,-19.00409 40.5377,-46.03118 58.51367,-64.14453 0.13809,0.0858 0.6582,0.42187 0.6582,0.42187 7.96451,4.34427 20.9978,-16.65393 39.46094,-36.203124 8.32649,0 25.7041,4.344248 39.46094,-16.291016 3.98225,-14.842891 -41.99563,-50.6816406 -51.4082,-50.6816406 z m -2.58594,20.9453126 c 7.24044,3.98224 34.03026,24.617359 31.49609,28.599609 -2.53414,3.98223 -8.3862,10.881206 -24.97851,0.722657 -17.73911,-10.860662 -14.48206,-23.891919 -6.51758,-29.322266 z"
       transform="matrix(0.8554358,0,0,0.72275702,471.99718,836.23434)"
       id="path1381"
       inkscape:connector-curvature="0" />
    <g
       aria-label=""
       style="font-style:normal;font-variant:normal;font-weight:normal;font-stretch:normal;font-size:40px;line-height:23.4375px;font-family:FontAwesome;-inkscape-font-specification:FontAwesome;letter-spacing:0px;word-spacing:0px;fill:#f7fbfd;fill-opacity:1;stroke:none;stroke-width:1.02694881px;stroke-linecap:butt;stroke-linejoin:miter;stroke-opacity:1"
       id="text894-5"
       transform="matrix(4.245813,0,0,4.2498489,395.50767,-2637.9244)" />
    <g
       id="g1253"
       transform="matrix(0.91246485,0,0,0.9133322,-143.38949,85.220979)"
       style="stroke-width:1.09541214">
      <path
         sodipodi:nodetypes="cccccc"
         inkscape:connector-curvature="0"
         id="path1243"
         d="m 341.67554,960.49835 -59.51725,65.27695 c 0,0 -49.43772,28.3187 -84.47612,7.6797 -17.2792,-40.31815 -2.39989,-81.59625 2.3999,-86.87601 4.79977,-5.27975 59.99722,-59.99722 59.99722,-59.99722 22.94816,26.28749 50.02104,50.99582 81.59625,73.91658 z"
         style="fill:#f7fbfd;fill-opacity:1;fill-rule:evenodd;stroke:#6c97a3;stroke-width:4.10779524;stroke-linecap:butt;stroke-linejoin:miter;stroke-miterlimit:4;stroke-dasharray:none;stroke-opacity:1" />
      <path
         sodipodi:nodetypes="cscsscsssscc"
         inkscape:connector-curvature="0"
         id="path1358"
         d="m 259.9672,892.08375 c -2.35459,2.33461 -12.426,12.31566 -25.3894,25.2246 -14.3956,14.33515 -29.75324,29.73571 -31.6681,31.84204 -0.19336,0.2127 -2.32833,3.80624 -4.04296,8.80005 -1.71463,4.99381 -3.43189,11.68815 -4.47693,19.43848 -2.04519,15.16786 -1.46583,34.35668 6.33178,53.31298 17.51426,-32.51499 53.0581,-70.65248 67.06573,-70.00577 2.62644,0.12126 14.69615,15.03845 17.98404,15.82404 1.64394,0.39279 10.93617,-7.90356 10.36419,-11.63 -0.57198,-3.72644 -6.32069,-6.63296 -4.75863,-8.58551 5.32256,-6.65312 11.97488,-11.12136 18.75935,-16.05502 -12.45092,-11.33067 -39.47885,-36.14153 -50.16907,-48.16589 z"
         style="fill:#dceeee;fill-opacity:1;fill-rule:evenodd;stroke:none;stroke-width:3.08084655;stroke-linecap:butt;stroke-linejoin:miter;stroke-miterlimit:4;stroke-dasharray:none;stroke-opacity:1" />
      <path
         inkscape:connector-curvature="0"
         id="path1245"
         d="m 369.19899,864.65334 c -16.88301,16.88807 -42.85566,44.11593 -57.57909,62.88296 l -3.67924,6.27796 -6.64735,2.76341 c 0,0 -17.69801,17.26774 -17.45803,19.06766 0.23999,1.67992 6.47056,5.23798 6.71055,7.27788 -0.12004,2.1599 -7.22257,8.89045 -8.90248,9.13044 -2.03991,-0.12004 -28.10697,-24.5303 -28.34696,-26.57021 -0.12005,-2.15989 5.74768,-9.31339 7.90757,-9.31339 1.91992,0.12005 5.49063,5.84709 6.69058,5.84709 1.55992,0 16.66863,-17.98712 16.66863,-17.98712 l 2.15199,-7.49497 6.49675,-4.21333 c 17.38344,-16.82299 41.11142,-40.92469 58.22789,-60.14781 9.59238,-8.19411 21.78593,6.4755 17.75919,12.47943 z"
         style="fill:#dceeee;fill-opacity:1;fill-rule:evenodd;stroke:#6c97a3;stroke-width:4.10779524;stroke-linecap:butt;stroke-linejoin:miter;stroke-miterlimit:4;stroke-dasharray:none;stroke-opacity:1"
         sodipodi:nodetypes="ccccccccccccccc" />
      <path
         inkscape:connector-curvature="0"
         id="path1367"
         d="m 357.80778,853.44483 c -1.25476,-0.0593 -2.44673,0.29111 -3.89283,1.5033 -17.20297,19.29496 -40.77418,43.23805 -58.13049,60.03478 a 3.7025532,3.7025532 0 0 1 -0.5603,0.44495 l -5.33387,3.4607 -1.76879,6.16149 a 3.7025532,3.7025532 0 0 1 -0.7251,1.36047 c 0,0 -3.79581,4.5216 -7.80762,9.06373 -2.0059,2.27106 -4.06261,4.54608 -5.77514,6.31165 -0.85626,0.88278 -1.61607,1.63086 -2.31812,2.24487 -0.35102,0.30699 -0.67608,0.58074 -1.09314,0.8606 -0.41706,0.27985 -0.63222,0.82946 -2.50854,0.82946 -1.6226,0 -2.23064,-0.59437 -2.72644,-0.95398 -0.49581,-0.35962 -0.84165,-0.6936 -1.1847,-1.04004 -0.6861,-0.69286 -1.31645,-1.43529 -1.93359,-2.13135 -0.38448,-0.43364 -0.68171,-0.7193 -1.00891,-1.05468 -0.55405,0.49975 -1.18343,1.10743 -1.80542,1.85119 -0.72782,0.87031 -1.38794,1.80633 -1.81275,2.52686 0.65037,0.75186 1.59661,1.76995 2.77222,2.97729 2.44627,2.51231 5.76254,5.73533 9.13147,8.89161 1.41219,1.32304 2.81624,2.60704 4.18945,3.85437 8.26195,-20.0903 7.22028,-12.16172 90.22157,-103.98011 -1.55523,-1.66551 -3.61071,-2.93608 -5.38697,-3.16772 -0.18273,-0.0238 -0.36274,-0.041 -0.54199,-0.0494 z"
         style="fill:#f7fbfd;fill-opacity:1;fill-rule:evenodd;stroke:none;stroke-width:3.08084655;stroke-linecap:butt;stroke-linejoin:miter;stroke-miterlimit:4;stroke-dasharray:none;stroke-opacity:1" />
      <path
         style="fill:#dceeee;fill-opacity:1;fill-rule:evenodd;stroke:#6c97a3;stroke-width:4.10779524;stroke-linecap:butt;stroke-linejoin:miter;stroke-miterlimit:4;stroke-dasharray:none;stroke-opacity:1"
         d="m 392.88787,771.06878 c 8.82429,0 51.92754,33.60017 48.19418,47.51538 -12.89704,19.34556 -29.18804,15.27281 -36.99412,15.27281 -17.3092,18.32737 -29.52741,38.01231 -36.99413,33.93956 0,0 -13.49877,-8.23226 -16.63037,-14.25461 -4.41217,-8.4849 13.57581,-23.75769 29.86681,-38.35171 -11.87887,-19.68495 7.4667,-43.44264 12.55763,-44.12143 z m -2.42443,19.63627 c -7.4667,5.09095 -10.52129,17.30919 6.10912,27.49106 15.55529,9.52364 21.04253,3.05455 23.41829,-0.67879 2.37578,-3.73336 -22.7395,-23.07892 -29.52741,-26.81227 z"
         id="path1257"
         inkscape:connector-curvature="0"
         sodipodi:nodetypes="ccccccccscc" />
      <circle
         style="color:#000000;overflow:visible;opacity:1;vector-effect:none;fill:#6c97a3;fill-opacity:1;fill-rule:nonzero;stroke:none;stroke-width:3.08084655;stroke-linecap:butt;stroke-linejoin:miter;stroke-miterlimit:4;stroke-dasharray:none;stroke-dashoffset:0;stroke-opacity:1;paint-order:stroke markers fill"
         id="path1279"
         cx="-281.8963"
         cy="963.5614"
         r="3.0545607"
         transform="scale(-1,1)" />
      <circle
         r="3.0545607"
         cy="944.34521"
         cx="-261.11249"
         id="circle1295"
         style="color:#000000;overflow:visible;opacity:1;vector-effect:none;fill:#6c97a3;fill-opacity:1;fill-rule:nonzero;stroke:none;stroke-width:3.08084655;stroke-linecap:butt;stroke-linejoin:miter;stroke-miterlimit:4;stroke-dasharray:none;stroke-dashoffset:0;stroke-opacity:1;paint-order:stroke markers fill"
         transform="scale(-1,1)" />
      <path
         style="fill:#f7fbfd;fill-opacity:1;fill-rule:evenodd;stroke:none;stroke-width:3.17250609;stroke-linecap:butt;stroke-linejoin:miter;stroke-miterlimit:4;stroke-dasharray:none;stroke-opacity:1"
         d="m 222.7168,9.1425781 c 0.0321,0.021888 -0.43537,0.154131 -1.20313,0.7363281 -0.86657,0.6571418 -1.96305,1.6792928 -3.11914,2.9765628 -2.31218,2.594528 -4.87782,6.296868 -6.88281,10.5625 -4.00997,8.531253 -5.78555,19.026028 -0.0449,28.539062 a 2.753513,2.753513 0 0 1 -0.51953,3.472657 c -8.70813,7.801034 -17.80689,15.748552 -23.99415,22.68164 -3.09362,3.466539 -5.44187,6.692959 -6.65429,9.3125 -0.84326,1.821914 -1.11722,3.18832 -0.98828,4.28711 0.99743,0.614485 1.9855,1.241453 2.93359,1.93164 1.04131,0.732405 2.08558,1.462343 3.125,2.197266 0.99217,0.739424 1.99134,1.469256 2.99024,2.199218 0.56266,0.38112 1.12895,0.748068 1.76953,0.978516 0.0697,7.9e-5 0.1393,0.0019 0.20898,0.002 0.009,-0.0027 0.0181,-0.003 0.0273,-0.0059 0.13554,-0.0029 0.26811,0.0038 0.40235,0.0059 0.53272,6.14e-4 1.06494,0.0012 1.59765,0.002 -0.0106,0.0044 -0.0347,0.0041 -0.0469,0.0078 0.12682,0.0075 0.41557,0.04346 0.5332,0.103515 0.21609,0.110349 -0.10103,0.322909 0.37696,0.105469 0.46342,-0.124224 0.92765,-0.253999 1.3789,-0.417969 0.49711,-0.191157 0.94283,-0.479334 1.39258,-0.734374 0.61187,-0.436065 1.18708,-0.914629 1.77734,-1.378907 0.5224,-0.4456 1.09256,-0.832898 1.62696,-1.263672 0.46672,-0.441312 0.97892,-0.83166 1.43945,-1.28125 0.49529,-0.53952 1.02504,-1.03934 1.54102,-1.558593 0.46,-0.536704 0.98676,-1.00755 1.4375,-1.550782 0.45945,-0.365194 0.70096,-0.945287 1.10351,-1.365234 0.47975,-0.690485 1.00451,-1.349607 1.47266,-2.048828 0.40322,-0.547264 0.81271,-1.090295 1.24218,-1.613281 0.51253,-0.747894 1.07711,-1.453784 1.63282,-2.169922 0.48762,-0.564448 0.95945,-1.140934 1.45898,-1.695313 0.49874,-0.207114 0.69626,-0.970347 1.10742,-1.279297 0.46182,-0.381898 0.77144,-0.947791 1.16211,-1.396484 0.28646,-0.325707 0.65961,-0.589872 0.90821,-0.990234 0.49075,-0.29744 1.02717,-1.654552 1.58984,-2.041016 0.77221,-0.773088 1.43322,-1.675402 2.36523,-2.277344 1.11426,-0.878784 2.29563,-1.631424 3.63086,-2.130859 1.06655,-0.394192 2.05765,-0.640099 3.05469,-0.775391 0.75743,-0.278099 1.5278,-0.524373 2.31445,-0.699219 0.82594,-0.194794 1.65875,-0.368464 2.47461,-0.603515 0.98557,-0.300544 1.99461,-0.523715 3.00782,-0.708985 1.03344,-0.201599 2.06432,-0.432155 3.11914,-0.492187 0.99573,-0.102933 1.99114,-0.18909 2.99218,-0.226563 0.92782,-0.05781 1.85472,-0.119397 2.78125,-0.195312 0.90448,-0.07488 1.80869,-0.155304 2.71094,-0.253906 0.8737,-0.09653 1.74541,-0.198897 2.61524,-0.326172 0.83378,-0.123403 1.66709,-0.256679 2.49414,-0.419922 0.80443,-0.160896 1.60749,-0.332119 2.39648,-0.558594 0.72664,-0.217738 1.45443,-0.384365 2.17969,-0.597656 0.67455,-0.247115 1.34365,-0.513022 1.98047,-0.847656 0.69758,-0.376704 1.39812,-0.756452 2.04883,-1.210938 0.604,-0.396565 1.20771,-0.792612 1.79687,-1.210937 0.46092,-0.372207 0.89609,-0.775179 1.32422,-1.185547 0.014,-0.01933 0.027,-0.0393 0.041,-0.05859 0.4689,-0.636544 0.85721,-1.328625 1.36524,-1.9375 0.47807,-0.715584 0.98646,-1.406365 1.50586,-2.08789 0.44537,-0.589985 0.86223,-1.199636 1.30273,-1.792969 0.41999,-0.692491 0.88558,-1.353626 1.30664,-2.044922 0.43615,-0.647093 0.80306,-1.340437 1.18946,-2.017578 0.45436,-0.767563 0.88746,-1.546986 1.31054,-2.332031 0.1471,-0.265879 0.30416,-0.526228 0.45313,-0.791016 -0.69554,-1.335157 -1.55106,-2.755178 -2.61914,-4.248047 -3.70707,-5.181429 -9.2572,-10.957298 -15.23828,-16.271484 -5.9811,-5.314187 -12.40321,-10.190146 -17.82813,-13.6875 -2.71246,-1.748683 -5.18062,-3.152315 -7.16601,-4.083985 -1.87835,-0.8814287 -3.27533,-1.1974265 -3.69336,-1.2363279 z M 190.76758,99.019531 c -0.14328,-1.65e-4 -0.28642,1.62e-4 -0.42969,0 -0.0474,0.01396 -0.0936,0.0145 -0.14062,0.02539 0.0365,0.01241 0.0704,0.02958 0.10742,0.04102 0.40863,0.06027 0.79747,0.290428 1.21679,0.160156 0.1082,-0.188979 0.56495,-0.151097 0.79102,-0.216797 -0.51848,0.02471 -1.02819,-0.0017 -1.54492,-0.0098 z m -0.57031,0.02539 c -0.0234,-0.0079 -0.0452,-0.01902 -0.0684,-0.02734 -0.67209,-7.59e-4 -1.34354,-9.42e-4 -2.01563,-0.002 0.70913,0.03785 1.37498,0.19361 2.08399,0.0293 z m 29.72461,-74.535156 a 2.753513,2.753513 0 0 1 1.32421,0.341796 c 4.12342,2.267872 12.45974,8.35506 19.86133,14.607422 3.7008,3.126187 7.10103,6.248954 9.53125,8.988282 1.21512,1.369674 2.19219,2.621596 2.87891,3.919922 0.34336,0.649162 0.63026,1.313696 0.75976,2.130859 0.12951,0.817163 0.0568,1.904283 -0.54101,2.84375 -1.39585,2.193472 -4.06548,5.669423 -8.87891,6.859375 -4.81343,1.189963 -11.20355,0.03191 -19.85937,-5.267578 -9.3518,-5.725579 -13.71417,-12.455458 -14.20508,-18.835938 -0.4909,-6.38048 2.88936,-11.915156 7.57422,-15.109375 a 2.753513,2.753513 0 0 1 1.55469,-0.478515 z"
         transform="matrix(0.9375,0,0,0.9375,184.28971,765.14588)"
         id="path1297"
         inkscape:connector-curvature="0" />
    </g>
  </g>
</svg>
