<?xml version="1.0" encoding="UTF-8" standalone="no"?>
<!-- Created with Inkscape (http://www.inkscape.org/) -->

<svg
   xmlns:dc="http://purl.org/dc/elements/1.1/"
   xmlns:cc="http://creativecommons.org/ns#"
   xmlns:rdf="http://www.w3.org/1999/02/22-rdf-syntax-ns#"
   xmlns:svg="http://www.w3.org/2000/svg"
   xmlns="http://www.w3.org/2000/svg"
   xmlns:sodipodi="http://sodipodi.sourceforge.net/DTD/sodipodi-0.dtd"
   xmlns:inkscape="http://www.inkscape.org/namespaces/inkscape"
   width="471.6972"
   height="149.01221"
   viewBox="0 0 442.21613 139.69895"
   id="svg192014"
   version="1.1"
   inkscape:version="0.92.2 (5c3e80d, 2017-08-06)"
   sodipodi:docname="logo.svg">
  <defs
     id="defs192016" />
  <sodipodi:namedview
     id="base"
     pagecolor="#616161"
     bordercolor="#d2d2d2"
     borderopacity="0.13333333"
     inkscape:pageopacity="0"
     inkscape:pageshadow="2"
     inkscape:zoom="1"
     inkscape:cx="221.82558"
     inkscape:cy="-24.112037"
     inkscape:document-units="mm"
     inkscape:current-layer="layer1"
     showgrid="true"
     units="px"
     inkscape:showpageshadow="false"
     borderlayer="true"
     inkscape:window-width="1920"
     inkscape:window-height="1016"
     inkscape:window-x="0"
     inkscape:window-y="27"
     inkscape:window-maximized="1"
     inkscape:snap-perpendicular="true"
     inkscape:snap-tangential="true"
     fit-margin-top="1"
     fit-margin-left="1"
     fit-margin-right="1"
     fit-margin-bottom="1">
    <inkscape:grid
       type="xygrid"
       id="grid5996"
       originx="108.13931"
       originy="32.701075" />
  </sodipodi:namedview>
  <metadata
     id="metadata192019">
    <rdf:RDF>
      <cc:Work
         rdf:about="">
        <dc:format>image/svg+xml</dc:format>
        <dc:type
           rdf:resource="http://purl.org/dc/dcmitype/StillImage" />
        <dc:title></dc:title>
      </cc:Work>
    </rdf:RDF>
  </metadata>
  <g
     inkscape:label="Layer 1"
     inkscape:groupmode="layer"
     id="layer1"
     transform="translate(108.13931,-945.3642)">
    <g
       id="g2333"
       transform="matrix(0.73427238,0,0,0.73427238,-107.20253,-383.465)"
       style="overflow:visible;fill:#ffffff">
      <path
         inkscape:connector-curvature="0"
         id="path2208"
         d="m 344.76466,1811.0065 c -0.35402,-0.02 -0.72064,0 -1.08789,0.074 l -18.70508,3.6328 c -1.471,0.284 -2.63877,1.2723 -2.88477,2.4453 l -2.42773,11.6934 c -4.86845,2.4491 -9.35263,5.4642 -13.38867,8.9472 l -12.00782,-2.3457 c -1.174,-0.224 -2.54781,0.4701 -3.38281,1.7051 l -10.66016,15.7949 c -0.837,1.244 -0.96854,2.7716 -0.31054,3.7676 l 6.77734,10.3379 c -1.61817,4.8639 -2.68056,9.9434 -3.125,15.1523 l -10.75781,7.1114 c -1.002,0.663 -1.48299,2.115 -1.20899,3.582 l 3.55079,18.7227 c 0.278,1.469 1.2675,2.6492 2.4375,2.9082 l 12.64257,2.7382 c 2.30279,4.6378 5.12173,8.9296 8.36524,12.8223 l -2.50195,12.4668 c -0.23301,1.174 0.45621,2.5408 1.69921,3.3828 l 15.7793,10.6797 c 1.241,0.838 2.77044,0.9635 3.77344,0.3145 l 10.32812,-6.6934 c 6.93554,2.4209 14.32903,3.7105 21.91602,3.6797 -21.852,-3.588 -40.27839,-20.23 -45.02539,-43.209 -6.156,-29.795 13.00383,-58.9397 42.79883,-65.0957 29.794,-6.157 58.93579,13.0058 65.09179,42.8008 0.75195,3.6337 1.1105,7.2546 1.13086,10.8281 -0.78051,10.374 -0.0249,22.8671 1.79492,28.916 0.259,0.864 0.49624,1.6836 0.86524,2.5996 0.679,1.683 1.61597,3.9276 2.16797,4.7656 0.232,0.357 1.79501,2.2046 2.16601,2.6016 0.697,0.743 1.67857,1.421 2.60157,2.168 1.986,1.612 5.59723,3.572 7.36523,4.332 2.138,0.917 5.40977,1.6894 5.63477,1.7344 2.018,0.395 2.81103,0.2686 4.33203,0.4316 11.732,1.257 24.01501,-1.088 34.66601,-4.334 -0.782,-6.005 -1.65084,-11.9224 -3.46484,-16.8965 -4.792,1.3971 -16.57222,4.0159 -24.69922,3.4649 -3.406,-0.228 -8.34916,-1.7819 -9.53516,-3.4649 -0.201,-0.2869 -0.79418,-1.5173 -0.86718,-1.7343 -0.252,-0.746 -0.33364,-2.0026 -0.43164,-2.5996 -0.279,-1.692 -0.029,-3.7022 0,-5.1992 H 476.042 c 0.253,-14.0901 0.64656,-26.694 -3.89844,-34.668 -0.64,-1.118 -1.49397,-2.6778 -2.16797,-3.4688 -0.999,-1.167 -3.24117,-3.142 -5.20117,-4.33 -0.558,-0.34 -4.48414,-2.2075 -6.49414,-2.9375 -1.378,-0.501 -4.13253,-0.8729 -4.76953,-0.9629 -1.574,-0.225 -3.41422,-0.3307 -5.19922,-0.4317 -1.83,-0.104 -7.91194,-0.1083 -10.83594,0.4317 -1.83,0.338 -3.91862,1.0477 -4.76562,1.3007 -3.00377,0.8837 -6.32079,2.3505 -8.86914,4.17 l -2.20508,-11.1582 c -0.295,-1.459 -1.28608,-2.6311 -2.45508,-2.8731 l -10.35937,-2.1172 c -2.65619,-5.4803 -6.03573,-10.4787 -9.97852,-14.9238 l 2.13086,-10.6035 c 0.236,-1.164 -0.45627,-2.541 -1.69726,-3.377 l -15.78126,-10.6777 c -1.23599,-0.832 -2.77143,-0.9634 -3.77343,-0.3184 l -9.41797,6.1055 c -5.28562,-1.7702 -10.8275,-2.8809 -16.51367,-3.2578 l -6.51367,-9.6699 c -0.5025,-0.7448 -1.44968,-1.2003 -2.51172,-1.2617 z m 168.85742,58.0839 c -1.23125,-0.017 -2.39492,0.014 -3.48242,0.1465 -7.9,0.947 -17.38299,1.2235 -23.83399,3.8985 0.536,5.821 2.00656,10.7048 2.60156,16.4668 4.612,-0.675 13.53588,-2.1661 20.79688,-2.1661 2.534,0 6.79837,0.2042 8.23437,0.8672 1.689,0.779 3.32835,2.3105 3.90235,3.8985 0.475,1.322 0.33769,3.2368 0.42969,5.6328 0.076,2.022 0.146,4.1458 0,5.6328 -9.355,0.633 -14.84061,-0.882 -22.09961,0 -3.152,0.384 -6.68047,2.0702 -8.23047,3.0332 -5.953,3.7 -8.67374,11.4414 -7.80274,21.2324 0.523,5.836 3.05396,12.021 6.50196,15.166 1.409,1.287 4.34212,2.7102 5.20312,3.0352 10.004,3.783 21.8933,-1.3652 29.0293,-5.2012 0.743,2.112 0.49415,3.5707 2.53515,4.5137 0.723,0.334 5.33988,0.2539 8.29688,0.2539 h 8.66797 c 0.301,-13.915 1.06259,-34.0019 0.43359,-48.9629 -0.206,-4.876 -0.76397,-11.0253 -2.16797,-14.7363 -0.666,-1.758 -2.01417,-3.7909 -2.70117,-4.5899 -0.394,-0.461 -1.50405,-1.6148 -2.49805,-2.3418 -2.157,-1.576 -3.55859,-2.3738 -6.93359,-3.4668 -4.06,-1.312 -8.10305,-1.94 -12.99805,-2.166 -1.3555,-0.063 -2.65351,-0.1292 -3.88476,-0.1465 z m 83.69531,0.1446 c -0.0558,-0.016 -0.12675,-0.016 -0.21875,0 -3.544,1.014 -7.58803,2.3894 -10.83203,3.8984 -2.72,1.264 -5.85378,3.016 -7.80078,4.334 -0.36,0.243 -0.73919,0.47 -0.86719,0 -0.36,-1.039 -0.53723,-2.3398 -0.86523,-3.4688 -0.605,-2.081 -0.43903,-3.1953 -1.33203,-3.1953 -4.208,-0.316 -12.74938,-0.2775 -17.73438,-0.2695 v 74.9629 h 22.09961 v -45.4981 c 5.949,-4.018 13.10464,-6.8257 19.93164,-9.9667 -0.464,-7.312 -1.46602,-17.0573 -2.16602,-20.3653 -0.0203,-0.198 -0.0474,-0.3873 -0.21484,-0.4355 z m -152.44922,17.5468 c 2.475,-0.072 5.53796,0.2932 6.90821,1.086 0.17799,0.105 1.7436,0.9726 2.5996,2.5996 0.242,0.461 0.77129,1.8821 0.86329,3.0351 0.152,1.881 0.076,3.9819 0,5.6329 h -19.06446 c -0.752,-5.645 1.033,-11.0388 6.5,-12.1348 0.61025,-0.1215 1.36836,-0.1948 2.19336,-0.2188 z m 68.66992,31.7754 c 2.93413,0.064 6.17843,0.3712 8.73243,0.078 0.285,2.46 -0.56941,6.0589 0.43359,7.7989 -1.945,1.882 -9.09664,4.3967 -13.43164,3.4687 0.07,0.014 -1.40856,-0.075 -2.60156,-1.3008 -1.698,-1.746 -1.725,-7.0009 0,-8.6679 1.3105,-1.2635 3.93306,-1.4411 6.86718,-1.377 z"
         style="clip-rule:evenodd;fill:#ffffff;fill-rule:evenodd" />
      <path
         id="path2234"
         d="m 392.035,1901.96 c 0.147,-12.908 -10.503,-20.354 -20.518,-23.018 -2.9,-0.771 -5.838,-1.104 -8.729,-0.984 -12.216,0.501 -22.257,8.897 -25.58,21.393 -2.068,7.771 -1.192,15.625 2.462,22.108 3.617,6.416 9.684,11.031 17.076,12.998 3.1,0.825 6.221,1.182 9.277,1.056 4.752,-0.194 11.267,-1.666 16.847,-7.222 l -27.544,-7.329 c -1.216,-0.322 -1.941,-1.571 -1.617,-2.786 l 3.152,-11.842 c 0.323,-1.215 1.568,-1.937 2.785,-1.615 l 44.651,11.879 c 0.995,-3.733 1.47,-7.641 1.373,-11.626 l -11.501,-0.713 c -1.208,-0.075 -2.148,-1.085 -2.134,-2.299 z"
         inkscape:connector-curvature="0"
         style="fill:#ffffff" />
      <path
         inkscape:connector-curvature="0"
         id="path2214"
         d="m 31.631844,1883.2565 c -0.542,0.177 -0.884235,0.5578 -0.865235,1.2988 -2.962,8.253 -5.157828,16.7038 -7.798828,25.1308 -7.905,25.22 -15.5177966,50.4571 -22.96679662,75.8321 H 23.834969 c 1.946,-6.432 3.423812,-13.329 5.632812,-19.5 1.269,-0.255 32.921875,-0.4227 33.796875,-0.4317 2.04,6.483 3.670813,13.3697 5.632813,19.9317 h 23.833984 c -4.81,-17.223 -10.393562,-34.1099 -15.601562,-51.1309 -0.651,-2.128 -1.086422,-4.2889 -1.732422,-6.5019 -1.865,-6.392 -4.138407,-12.7175 -6.066407,-19.0645 -2.59,-8.532 -5.031828,-17.0764 -7.798828,-25.5644 z m 14.734375,21.666 c 4.01,13.464 7.620578,27.3341 11.267578,41.1621 -1.09,-0.032 -22.220797,0.051 -22.966797,0 3.566,-13.103 7.489031,-26.9203 10.832031,-39.8633 0.106,-0.42 0.456188,-1.1358 0.867188,-1.2988 z m 207.593751,1.959 c -0.62653,0.031 -1.18828,0.298 -1.48828,0.7382 l -4.76172,7.0664 c -0.098,0.01 -0.19788,0.01 -0.29688,0.018 -2.363,0.222 -4.67978,0.6743 -6.92578,1.3243 -0.099,0.029 -0.19592,0.067 -0.29492,0.096 l -7.06445,-4.7188 c -0.589,-0.392 -1.49542,-0.3211 -2.23242,0.1719 l -9.40625,6.2988 c -0.739,0.494 -1.15739,1.3107 -1.02539,2.0117 l 1.52929,8.2012 c -0.064,0.072 -0.13526,0.1428 -0.19726,0.2188 -1.545,1.861 -2.92733,3.882 -4.11133,6.041 -0.048,0.088 -0.0858,0.1796 -0.13477,0.2676 l -8.36914,1.6582 c -0.695,0.136 -1.29165,0.8301 -1.47265,1.7011 l -2.31836,11.1485 c -0.18,0.872 0.0938,1.7472 0.67382,2.1562 l 7.00196,4.8965 c 0.008,0.101 0.01,0.1988 0.0195,0.2988 0.221,2.426 0.67589,4.8016 1.33789,7.0996 0.027,0.1 0.0637,0.1941 0.0937,0.2891 l -4.7207,7.1016 c -0.394,0.593 -0.32975,1.5049 0.15625,2.2519 l 6.18945,9.4785 c 0.484,0.743 1.29228,1.1691 1.98828,1.0391 l 8.30859,-1.5684 c 0.078,0.062 0.14857,0.1332 0.22657,0.2012 1.867,1.55 3.89064,2.9333 6.05664,4.1133 0.087,0.05 0.18062,0.09 0.26562,0.1348 l 1.60352,8.3007 c 0.137,0.7 0.8234,1.2998 1.6914,1.4688 l 11.02735,2.2617 c 0.867,0.178 1.73267,-0.1044 2.13867,-0.6914 l 4.83984,-7.0918 c 0.098,-0.012 0.20474,-0.013 0.30274,-0.022 1.593,-0.169 3.16117,-0.4445 4.70117,-0.8125 -2.249,0.236 -4.55548,0.2353 -6.89648,-0.098 -15.4,-2.185 -26.11088,-16.4438 -23.92188,-31.8418 2.186,-15.402 16.4437,-26.1148 31.8457,-23.9258 15.398,2.186 26.10788,16.4418 23.92188,31.8438 -0.502,3.541 -1.6665,6.8148 -3.3125,9.7578 1.129,-1.502 2.1867,-3.0729 3.0957,-4.7539 0.048,-0.09 0.0867,-0.1854 0.13672,-0.2754 l 8.31055,-1.7461 c 0.691,-0.149 1.28498,-0.8497 1.45898,-1.7227 l 2.23047,-11.164 c 0.177,-0.879 -0.0976,-1.7475 -0.68359,-2.1485 l -6.9668,-4.7421 c -0.008,-0.099 -0.01,-0.2008 -0.0195,-0.3008 -0.228,-2.364 -0.68213,-4.6848 -1.32813,-6.9278 -0.029,-0.095 -0.0648,-0.1901 -0.0918,-0.2851 l 4.74804,-7.1445 c 0.397,-0.592 0.3268,-1.509 -0.1582,-2.252 l -6.18945,-9.4805 c -0.485,-0.742 -1.29133,-1.1671 -1.98633,-1.0371 l -8.38867,1.586 c -0.077,-0.063 -0.14761,-0.1343 -0.22461,-0.1973 -1.731,-1.435 -3.59208,-2.7277 -5.58008,-3.8457 -0.085,-0.046 -0.17577,-0.084 -0.25977,-0.1309 l -1.70312,-8.5527 c -0.142,-0.699 -0.82936,-1.2947 -1.69336,-1.4707 l -11.03516,-2.2441 c -0.216,-0.044 -0.43178,-0.059 -0.64062,-0.049 z m -127.83789,2.3418 c -3.442,-0.041 -6.78211,0.2178 -9.22461,0.9003 -4.25,1.186 -8.71017,2.6997 -11.70117,4.7637 -0.359,0.251 -2.24061,1.8079 -2.59961,2.1699 -1.441,1.457 -2.66839,3.8035 -3.900393,6.0645 -1.751,3.22 -3.098797,7.1626 -3.466797,11.2676 -0.429,4.833 0,10.5271 0,16.0351 0,5.386 -0.403406,10.8811 0.433594,15.1641 0.721,3.684 3.326578,8.3534 4.767576,10.4004 1.443,2.049 4.17999,4.6586 4.33399,4.7656 1.612,1.148 3.37462,2.3922 4.76562,3.0332 0.876,0.403 1.97795,0.7345 3.00195,1.1035 5.643,2.033 12.55925,2.8293 19.53125,2.3633 8.71,-0.583 17.26963,-2.4966 24.26563,-4.7676 -0.645,-4.946 -1.8012,-11.1997 -3.0332,-16.4687 -1.371,0.079 -3.17822,0.4241 -5.19922,0.8691 -3.996,0.88 -8.35596,1.3385 -13.00196,1.7305 -4.679,0.397 -8.16921,0.6193 -11.69921,-0.4317 -0.741,-0.22 -3.62563,-1.3364 -4.76563,-3.8984 -0.455,-1.022 -0.63414,-1.181 -0.86914,-2.168 -0.427,-1.802 -0.56964,-3.6994 -0.43164,-6.0664 h 39.86328 c 0.161,-7.746 0.49395,-15.288 0.002,-21.664 -0.591,-7.702 -4.01629,-16.3973 -9.77929,-19.9473 -0.131,-0.081 -1.33589,-0.8359 -2.08789,-1.2539 -1.132,-0.629 -2.69407,-1.2416 -4.16407,-1.7656 -1.665,-0.594 -3.29722,-0.9539 -5.19921,-1.2989 -2.8555,-0.518 -6.3998,-0.8592 -9.8418,-0.9003 z m 82.53711,0.031 c -7.368,2.167 -13.8346,5.234 -19.9336,8.666 -0.554,-2.771 -0.88578,-4.6007 -1.30078,-6.9297 -4.47,-0.01 -14.16981,-0.055 -18.63281,0 0,24.696 -0.0801,49.7845 -0.0801,74.4825 0.084,0.084 22.63328,0.084 22.61328,0.045 v -45.9317 c 2.275,-1.552 6.10421,-3.5282 9.53321,-5.1992 2.454,-1.196 5.60378,-2.0253 7.80078,-3.0313 1.647,-0.755 2.00806,-0.7563 2.16406,-1.7363 -0.101,-4.865 -0.63706,-14.3812 -2.16406,-20.3652 z m -80.97852,17.7012 c 2.1385,0.01 4.21839,0.4172 5.68164,1.3652 2.655,1.722 3.30521,5.444 3.03321,10.832 h -19.06641 c -0.066,-1.452 -0.41681,-6.3634 0.86719,-8.2304 0.107,-0.157 0.72923,-1.1378 0.86523,-1.3028 1.325,-1.5743 5.05498,-2.6763 8.61914,-2.664 z"
         style="clip-rule:evenodd;fill:#ffffff;fill-rule:evenodd" />
    </g>
  </g>
</svg>
