<?xml version="1.0" encoding="UTF-8" standalone="no"?>
<!-- Created with Inkscape (http://www.inkscape.org/) -->

<svg
   xmlns:dc="http://purl.org/dc/elements/1.1/"
   xmlns:cc="http://creativecommons.org/ns#"
   xmlns:rdf="http://www.w3.org/1999/02/22-rdf-syntax-ns#"
   xmlns:svg="http://www.w3.org/2000/svg"
   xmlns="http://www.w3.org/2000/svg"
   xmlns:sodipodi="http://sodipodi.sourceforge.net/DTD/sodipodi-0.dtd"
   xmlns:inkscape="http://www.inkscape.org/namespaces/inkscape"
   width="250"
   height="250"
   viewBox="0 0 234.375 234.37501"
   id="svg192014"
   version="1.1"
   inkscape:version="0.92.2 (5c3e80d, 2017-08-06)"
   sodipodi:docname="logo_html5.svg">
  <defs
     id="defs192016" />
  <sodipodi:namedview
     id="base"
     pagecolor="#ffffff"
     bordercolor="#666666"
     borderopacity="0.13333333"
     inkscape:pageopacity="0.0"
     inkscape:pageshadow="2"
     inkscape:zoom="1"
     inkscape:cx="-228.7503"
     inkscape:cy="124.87517"
     inkscape:document-units="mm"
     inkscape:current-layer="layer1"
     showgrid="false"
     units="px"
     inkscape:showpageshadow="false"
     borderlayer="true"
     inkscape:window-width="1920"
     inkscape:window-height="1016"
     inkscape:window-x="0"
     inkscape:window-y="27"
     inkscape:window-maximized="1"
     inkscape:snap-perpendicular="true"
     inkscape:snap-tangential="true"
     inkscape:pagecheckerboard="true" />
  <metadata
     id="metadata192019">
    <rdf:RDF>
      <cc:Work
         rdf:about="">
        <dc:format>image/svg+xml</dc:format>
        <dc:type
           rdf:resource="http://purl.org/dc/dcmitype/StillImage" />
        <dc:title></dc:title>
      </cc:Work>
    </rdf:RDF>
  </metadata>
  <g
     inkscape:label="Layer 1"
     inkscape:groupmode="layer"
     id="layer1"
     transform="translate(0,-817.9871)">
    <flowRoot
       transform="matrix(0.93750002,0,0,0.93750002,-1974.3857,36.684674)"
       style="font-style:normal;font-variant:normal;font-weight:normal;font-stretch:normal;font-size:42.66666794px;line-height:25px;font-family:FontAwesome;-inkscape-font-specification:FontAwesome;text-align:center;letter-spacing:0px;word-spacing:0px;text-anchor:middle;fill:#ffffff;fill-opacity:1;stroke:none;stroke-width:1px;stroke-linecap:butt;stroke-linejoin:miter;stroke-opacity:1"
       id="flowRoot6920"
       xml:space="preserve"><flowRegion
         id="flowRegion6914"
         style="text-align:center;text-anchor:middle;fill:#ffffff"><rect
           y="738.52148"
           x="1623.5172"
           height="220.61731"
           width="541.6438"
           id="rect6912"
           style="text-align:center;text-anchor:middle;fill:#ffffff" /></flowRegion><flowPara
         style="font-style:normal;font-variant:normal;font-weight:600;font-stretch:normal;font-size:21.33333397px;font-family:'Source Sans Pro';-inkscape-font-specification:'Source Sans Pro Semi-Bold';text-align:center;text-anchor:middle;fill:#ffffff"
         id="flowPara6916" /><flowPara
         style="font-style:normal;font-variant:normal;font-weight:normal;font-stretch:normal;font-size:24px;font-family:'Source Sans Pro';-inkscape-font-specification:'Source Sans Pro';text-align:center;text-anchor:middle;fill:#ffffff"
         id="flowPara6918" /></flowRoot>    <flowRoot
       transform="matrix(0.93750002,0,0,0.93750002,-2030.6587,36.684674)"
       style="font-style:normal;font-variant:normal;font-weight:normal;font-stretch:normal;font-size:42.66666794px;line-height:25px;font-family:FontAwesome;-inkscape-font-specification:FontAwesome;letter-spacing:0px;word-spacing:0px;fill:#ffffff;fill-opacity:1;stroke:none;stroke-width:1px;stroke-linecap:butt;stroke-linejoin:miter;stroke-opacity:1"
       id="flowRoot3684-0"
       xml:space="preserve"><flowRegion
         id="flowRegion3670-0"
         style="fill:#ffffff"><rect
           y="738.52148"
           x="1623.5172"
           height="220.61731"
           width="541.6438"
           id="rect3668-0"
           style="fill:#ffffff" /></flowRegion><flowPara
         style="font-style:normal;font-variant:normal;font-weight:600;font-stretch:normal;font-size:21.33333397px;font-family:'Source Sans Pro';-inkscape-font-specification:'Source Sans Pro Semi-Bold';fill:#ffffff"
         id="flowPara3680-2">Android</flowPara><flowPara
         style="font-style:normal;font-variant:normal;font-weight:normal;font-stretch:normal;font-size:24px;font-family:'Source Sans Pro';-inkscape-font-specification:'Source Sans Pro';fill:#ffffff"
         id="flowPara3682-2" /></flowRoot>    <flowRoot
       xml:space="preserve"
       id="flowRoot6906"
       style="font-style:normal;font-variant:normal;font-weight:normal;font-stretch:normal;font-size:42.66666794px;line-height:25px;font-family:FontAwesome;-inkscape-font-specification:FontAwesome;text-align:center;letter-spacing:0px;word-spacing:0px;text-anchor:middle;fill:#ffffff;fill-opacity:1;stroke:none;stroke-width:1px;stroke-linecap:butt;stroke-linejoin:miter;stroke-opacity:1"
       transform="matrix(0.93750002,0,0,0.93750002,-2066.5865,36.684674)"><flowRegion
         style="text-align:center;text-anchor:middle;fill:#ffffff"
         id="flowRegion6900"><rect
           style="text-align:center;text-anchor:middle;fill:#ffffff"
           id="rect6898"
           width="541.6438"
           height="220.61731"
           x="1623.5172"
           y="738.52148" /></flowRegion><flowPara
         id="flowPara6902"
         style="font-style:normal;font-variant:normal;font-weight:600;font-stretch:normal;font-size:21.33333397px;font-family:'Source Sans Pro';-inkscape-font-specification:'Source Sans Pro Semi-Bold';text-align:center;text-anchor:middle;fill:#ffffff">Apple IOS</flowPara><flowPara
         id="flowPara6904"
         style="font-style:normal;font-variant:normal;font-weight:normal;font-stretch:normal;font-size:24px;font-family:'Source Sans Pro';-inkscape-font-specification:'Source Sans Pro';text-align:center;text-anchor:middle;fill:#ffffff" /></flowRoot>    <flowRoot
       xml:space="preserve"
       id="flowRoot6934"
       style="font-style:normal;font-variant:normal;font-weight:normal;font-stretch:normal;font-size:42.66666794px;line-height:25px;font-family:FontAwesome;-inkscape-font-specification:FontAwesome;text-align:center;letter-spacing:0px;word-spacing:0px;text-anchor:middle;fill:#ffffff;fill-opacity:1;stroke:none;stroke-width:1px;stroke-linecap:butt;stroke-linejoin:miter;stroke-opacity:1"
       transform="matrix(0.93750002,0,0,0.93750002,-1865.7168,36.684674)"><flowRegion
         style="text-align:center;text-anchor:middle;fill:#ffffff"
         id="flowRegion6928"><rect
           style="text-align:center;text-anchor:middle;fill:#ffffff"
           id="rect6926"
           width="541.6438"
           height="220.61731"
           x="1623.5172"
           y="738.52148" /></flowRegion><flowPara
         id="flowPara6930"
         style="font-style:normal;font-variant:normal;font-weight:600;font-stretch:normal;font-size:21.33333397px;font-family:'Source Sans Pro';-inkscape-font-specification:'Source Sans Pro Semi-Bold';text-align:center;text-anchor:middle;fill:#ffffff">Cordova</flowPara><flowPara
         id="flowPara6932"
         style="font-style:normal;font-variant:normal;font-weight:normal;font-stretch:normal;font-size:24px;font-family:'Source Sans Pro';-inkscape-font-specification:'Source Sans Pro';text-align:center;text-anchor:middle;fill:#ffffff" /></flowRoot>    <flowRoot
       transform="matrix(0.93750002,0,0,0.93750002,-1664.5281,36.684674)"
       style="font-style:normal;font-variant:normal;font-weight:normal;font-stretch:normal;font-size:42.66666794px;line-height:25px;font-family:FontAwesome;-inkscape-font-specification:FontAwesome;text-align:center;letter-spacing:0px;word-spacing:0px;text-anchor:middle;fill:#ffffff;fill-opacity:1;stroke:none;stroke-width:1px;stroke-linecap:butt;stroke-linejoin:miter;stroke-opacity:1"
       id="flowRoot6948"
       xml:space="preserve"><flowRegion
         id="flowRegion6942"
         style="text-align:center;text-anchor:middle;fill:#ffffff"><rect
           y="738.52148"
           x="1623.5172"
           height="220.61731"
           width="541.6438"
           id="rect6940"
           style="text-align:center;text-anchor:middle;fill:#ffffff" /></flowRegion><flowPara
         style="font-style:normal;font-variant:normal;font-weight:600;font-stretch:normal;font-size:21.33333397px;font-family:'Source Sans Pro';-inkscape-font-specification:'Source Sans Pro Semi-Bold';text-align:center;text-anchor:middle;fill:#ffffff"
         id="flowPara6944">Javascript</flowPara><flowPara
         style="font-style:normal;font-variant:normal;font-weight:normal;font-stretch:normal;font-size:24px;font-family:'Source Sans Pro';-inkscape-font-specification:'Source Sans Pro';text-align:center;text-anchor:middle;fill:#ffffff"
         id="flowPara6946" /></flowRoot>    <path
       inkscape:connector-curvature="0"
       id="path16754"
       style="font-style:normal;font-variant:normal;font-weight:normal;font-stretch:normal;font-size:medium;line-height:25px;font-family:FontAwesome;-inkscape-font-specification:FontAwesome;letter-spacing:0px;word-spacing:0px;fill:#ffffff;fill-opacity:1;stroke:none;stroke-width:4.84346151px;stroke-linecap:butt;stroke-linejoin:miter;stroke-opacity:1"
       d="m -538.0826,880.12926 c -2.42173,0 -4.38237,-2.07577 -4.38237,-4.49748 0,-2.42174 1.96064,-4.49755 4.38237,-4.49755 2.53701,0 4.49765,2.07581 4.49765,4.49755 0,2.42171 -1.96064,4.49748 -4.49765,4.49748 z m 48.66518,0 c -2.53702,0 -4.49765,-2.07577 -4.49765,-4.49748 0,-2.42174 1.96063,-4.49755 4.49765,-4.49755 2.42173,0 4.38237,2.07581 4.38237,4.49755 0,2.42171 -1.96064,4.49748 -4.38237,4.49748 z m -93.64011,21.21897 c -6.57354,0 -11.87811,5.30475 -11.87811,11.76269 v 49.58783 c 0,6.57326 5.30457,11.87802 11.87811,11.87802 6.57306,0 11.76283,-5.30476 11.76283,-11.87802 v -49.58783 c 0,-6.45794 -5.30505,-11.76269 -11.76283,-11.76269 z m 122.23978,2.19107 h -105.86452 v 76.80346 c 0,7.03454 5.65087,12.68528 12.68552,12.68528 h 8.53369 l 0.11622,26.17776 c 0,6.5733 5.30455,11.878 11.76283,11.878 6.57307,0 11.87762,-5.3047 11.87762,-11.878 v -26.17776 h 15.91466 v 26.17776 c 0,6.5733 5.30455,11.878 11.87763,11.878 6.57354,0 11.87809,-5.3047 11.87809,-11.878 v -26.17776 h 8.64897 c 6.91938,0 12.57024,-5.65074 12.57024,-12.68528 z m -26.75432,-46.70482 8.18739,-15.10695 c 0.46013,-0.80726 0.23249,-1.84517 -0.57636,-2.30645 -0.80741,-0.34582 -1.84536,-0.11522 -2.30646,0.69194 l -8.30315,15.22231 c -7.03464,-3.11365 -14.87621,-4.84344 -23.17936,-4.84344 -8.30315,0 -16.14471,1.72979 -23.17936,4.84344 l -8.30315,-15.22231 c -0.46012,-0.80722 -1.49905,-1.03786 -2.30646,-0.69194 -0.8074,0.4611 -1.03794,1.49919 -0.57636,2.30645 l 8.18739,15.10695 c -16.26,8.30311 -27.21542,24.21731 -27.21542,42.5533 h 106.67144 c 0,-18.33599 -10.95542,-34.25019 -27.10014,-42.5533 z m 55.00769,56.27644 c 0,-6.57326 -5.30457,-11.76269 -11.87811,-11.76269 -6.45778,0 -11.76235,5.18943 -11.76235,11.76269 v 49.58783 c 0,6.57326 5.30457,11.87802 11.76235,11.87802 6.57354,0 11.87811,-5.30476 11.87811,-11.87802 z" />
    <path
       inkscape:connector-curvature="0"
       id="path16756"
       style="font-style:normal;font-variant:normal;font-weight:normal;font-stretch:normal;font-size:medium;line-height:25px;font-family:FontAwesome;-inkscape-font-specification:FontAwesome;letter-spacing:0px;word-spacing:0px;fill:#ffffff;fill-opacity:1;stroke:none;stroke-width:4.84346151px;stroke-linecap:butt;stroke-linejoin:miter;stroke-opacity:1"
       d="m -280.61693,979.34235 c -6.80362,-2.07576 -12.91558,-6.91923 -18.22063,-14.53039 -5.30455,-7.61115 -7.95683,-16.26018 -7.95683,-25.71649 0,-8.76436 2.537,-16.72148 7.49575,-23.87135 2.76755,-4.0362 7.1499,-8.53369 13.1466,-13.6078 -3.92079,-4.84347 -7.95733,-8.76435 -11.99338,-11.53205 -7.14992,-4.95877 -15.33779,-7.49582 -24.56314,-7.49582 -5.65086,0 -12.33968,1.38383 -19.9507,3.92086 -7.61101,2.65238 -13.1466,3.92095 -16.49054,3.92095 -2.65276,0 -7.95731,-1.15323 -15.91464,-3.45965 -8.0721,-2.30641 -14.76092,-3.45964 -20.41131,-3.45964 -13.26188,0 -24.10203,5.5354 -32.75148,16.6062 -8.64897,11.18607 -13.03086,25.48582 -13.03086,43.12986 0,18.91255 5.76565,38.17109 16.95212,58.00627 11.41651,19.8351 22.83352,29.868 34.71115,29.868 3.80598,0 8.87999,-1.2686 15.22251,-3.9209 6.22724,-2.5371 11.76283,-3.8056 16.37526,-3.8056 4.72818,0 10.6096,1.1532 17.4137,3.6902 6.91936,2.4218 12.22393,3.6903 16.14472,3.6903 9.8022,0 19.71965,-7.4958 29.63762,-22.6028 6.68833,-10.03292 11.30124,-19.71984 14.18408,-28.83015 z M -323.97705,844.0714 c 0,-0.80727 -0.11623,-1.49921 -0.11623,-2.30641 -0.11622,-0.69195 -0.34388,-1.49919 -0.57638,-2.53706 -13.37716,3.11362 -23.06407,8.76435 -28.83021,17.06744 -5.76613,8.30305 -8.76425,18.22061 -8.99479,29.63734 5.41983,-0.4611 9.34061,-1.15319 11.99337,-1.96043 4.15134,-1.38383 8.30315,-4.15153 12.45447,-8.30305 4.84347,-4.84347 8.41843,-10.14822 10.72489,-15.91428 2.19117,-5.65067 3.34442,-10.95542 3.34442,-15.68355 z" />
    <path
       inkscape:connector-curvature="0"
       id="path16758"
       style="font-style:normal;font-variant:normal;font-weight:normal;font-stretch:normal;font-size:medium;line-height:25px;font-family:FontAwesome;-inkscape-font-specification:FontAwesome;letter-spacing:0px;word-spacing:0px;fill:#ffffff;fill-opacity:1;stroke:none;stroke-width:4.28888416px;stroke-linecap:butt;stroke-linejoin:miter;stroke-opacity:1"
       d="m -307.06537,949.06235 c 0,15.21528 -12.35627,27.57139 -27.6736,27.57139 -15.21524,0 -27.57151,-12.35611 -27.57151,-27.57139 0,-15.31744 12.35627,-27.67356 27.57151,-27.67356 15.31733,0 27.6736,12.35612 27.6736,27.67356 z m 88.12628,-0.10203 c 0,15.31741 -12.35628,27.67351 -27.57153,27.67351 -15.31732,0 -27.67359,-12.3561 -27.67359,-27.67351 0,-15.21533 12.35627,-27.57144 27.67359,-27.57144 15.21525,0 27.57153,12.35611 27.57153,27.57144 z m 32.88115,-82.61209 c 0,-6.02486 -4.90134,-10.92646 -11.02844,-10.92646 h -44.01209 c -6.02459,0 -11.02844,4.9016 -11.02844,10.92646 v 16.44069 h -76.99576 v -16.44069 c 0,-6.02486 -5.00385,-10.92646 -11.02843,-10.92646 h -44.0121 c -6.12712,0 -11.02888,4.9016 -11.02888,10.92646 V 1004.001 c 0,6.0248 4.90176,10.9264 11.02888,10.9264 h 187.07682 c 6.1271,0 11.02844,-4.9016 11.02844,-10.9264 z" />
    <path
       inkscape:connector-curvature="0"
       id="path16760"
       style="font-style:normal;font-variant:normal;font-weight:normal;font-stretch:normal;font-size:medium;line-height:25px;font-family:FontAwesome;-inkscape-font-specification:FontAwesome;letter-spacing:0px;word-spacing:0px;fill:#ffffff;fill-opacity:1;stroke:none;stroke-width:4.84346151px;stroke-linecap:butt;stroke-linejoin:miter;stroke-opacity:1"
       d="M 166.31426,897.0035 H 88.587827 l 1.73008,20.87305 h 74.266263 l -5.76614,62.73435 -41.39998,11.41671 v 0.11522 h -0.46012 l -41.746293,-11.53205 -2.537,-32.05911 h 20.18125 l 1.49905,16.14485 22.602993,6.11202 22.71826,-6.11202 2.53699,-26.29307 H 71.636677 l -5.41983,-61.58107 H 168.1601 Z m -130.312383,-54.0853 14.76094,165.8309 66.194123,18.6819 66.65524,-18.6819 14.76095,-165.8309 z" />
  </g>
</svg>
