<?xml version="1.0" encoding="UTF-8" standalone="no"?>
<!-- Created with Inkscape (http://www.inkscape.org/) -->

<svg
   xmlns:dc="http://purl.org/dc/elements/1.1/"
   xmlns:cc="http://creativecommons.org/ns#"
   xmlns:rdf="http://www.w3.org/1999/02/22-rdf-syntax-ns#"
   xmlns:svg="http://www.w3.org/2000/svg"
   xmlns="http://www.w3.org/2000/svg"
   xmlns:sodipodi="http://sodipodi.sourceforge.net/DTD/sodipodi-0.dtd"
   xmlns:inkscape="http://www.inkscape.org/namespaces/inkscape"
   width="519.80054"
   height="197.11554"
   viewBox="0 0 487.313 184.79583"
   id="svg192014"
   version="1.1"
   inkscape:version="0.92.2 (5c3e80d, 2017-08-06)"
   sodipodi:docname="logo.svg">
  <defs
     id="defs192016">
    <filter
       inkscape:collect="always"
       style="color-interpolation-filters:sRGB"
       id="filter5553"
       x="-0.066220353"
       width="1.1324407"
       y="-0.14849179"
       height="1.2969836">
      <feGaussianBlur
         inkscape:collect="always"
         stdDeviation="6.6454765"
         id="feGaussianBlur5555" />
    </filter>
    <filter
       inkscape:collect="always"
       style="color-interpolation-filters:sRGB"
       id="filter5557"
       x="-0.073366569"
       width="1.1467331"
       y="-0.18824768"
       height="1.3764954">
      <feGaussianBlur
         inkscape:collect="always"
         stdDeviation="9.0550851"
         id="feGaussianBlur5559" />
    </filter>
  </defs>
  <sodipodi:namedview
     id="base"
     pagecolor="#1a5288"
     bordercolor="#d2d2d2"
     borderopacity="0.13333333"
     inkscape:pageopacity="0"
     inkscape:pageshadow="2"
     inkscape:zoom="1.4142136"
     inkscape:cx="176.30409"
     inkscape:cy="21.194466"
     inkscape:document-units="mm"
     inkscape:current-layer="layer1"
     showgrid="true"
     units="px"
     inkscape:showpageshadow="false"
     borderlayer="true"
     inkscape:window-width="1920"
     inkscape:window-height="1016"
     inkscape:window-x="0"
     inkscape:window-y="27"
     inkscape:window-maximized="1"
     inkscape:snap-perpendicular="true"
     inkscape:snap-tangential="true"
     fit-margin-top="1"
     fit-margin-left="1"
     fit-margin-right="1"
     fit-margin-bottom="1">
    <inkscape:grid
       type="xygrid"
       id="grid5996"
       originx="130.68774"
       originy="55.249511" />
  </sodipodi:namedview>
  <metadata
     id="metadata192019">
    <rdf:RDF>
      <cc:Work
         rdf:about="">
        <dc:format>image/svg+xml</dc:format>
        <dc:type
           rdf:resource="http://purl.org/dc/dcmitype/StillImage" />
        <dc:title></dc:title>
      </cc:Work>
    </rdf:RDF>
  </metadata>
  <g
     inkscape:label="Layer 1"
     inkscape:groupmode="layer"
     id="layer1"
     transform="translate(130.68775,-922.81576)">
    <g
       transform="matrix(0.73389443,0,0,0.73389443,-107.05457,946.40634)"
       id="g5367"
       style="filter:url(#filter5557);fill:#000000;fill-opacity:0.4566929">
      <path
         d="m 31.631,72.256 c 9.968,0 19.934,0 29.902,0 2.767,8.488 5.208,17.033 7.798,25.565 1.928,6.347 4.202,12.673 6.067,19.065 0.646,2.213 1.081,4.373 1.732,6.501 5.208,17.021 10.791,33.908 15.601,51.131 -7.946,0 -15.89,0 -23.833,0 -1.962,-6.562 -3.593,-13.449 -5.633,-19.932 -0.875,0.009 -32.529,0.177 -33.798,0.432 -2.209,6.171 -3.687,13.068 -5.633,19.5 -7.944,0 -15.887,0 -23.833,0 7.449,-25.375 15.061,-50.612 22.966,-75.832 2.641,-8.427 4.838,-16.878 7.8,-25.131 -0.019,-0.741 0.322,-1.122 0.864,-1.299 z M 45.5,95.222 c -3.343,12.943 -7.267,26.76 -10.833,39.863 0.746,0.051 21.876,-0.032 22.966,0 -3.647,-13.828 -7.256,-27.699 -11.266,-41.163 -0.411,0.163 -0.761,0.88 -0.867,1.3 z"
         id="path5359"
         inkscape:connector-curvature="0"
         style="clip-rule:evenodd;fill:#000000;fill-rule:evenodd;fill-opacity:0.4566929" />
      <path
         d="m 157.193,145.054 c -13.287,0 -26.577,0 -39.864,0 -0.138,2.367 0.005,4.263 0.432,6.065 0.235,0.987 0.413,1.146 0.868,2.168 1.14,2.562 4.025,3.679 4.766,3.899 3.53,1.051 7.021,0.829 11.7,0.432 4.646,-0.392 9.005,-0.851 13.001,-1.731 2.021,-0.445 3.829,-0.789 5.2,-0.868 1.232,5.269 2.388,11.521 3.033,16.467 -6.996,2.271 -15.556,4.185 -24.266,4.768 -6.972,0.466 -13.888,-0.329 -19.531,-2.362 -1.024,-0.369 -2.126,-0.702 -3.002,-1.105 -1.391,-0.641 -3.153,-1.884 -4.765,-3.032 -0.154,-0.107 -2.892,-2.718 -4.335,-4.767 -1.441,-2.047 -4.045,-6.715 -4.766,-10.399 -0.837,-4.283 -0.435,-9.779 -0.435,-15.165 0,-5.508 -0.429,-11.201 0,-16.034 0.368,-4.105 1.717,-8.048 3.468,-11.268 1.232,-2.261 2.459,-4.608 3.9,-6.065 0.359,-0.362 2.241,-1.918 2.6,-2.169 2.991,-2.064 7.451,-3.579 11.701,-4.765 4.885,-1.365 13.355,-1.036 19.066,0 1.902,0.345 3.535,0.706 5.2,1.3 1.47,0.524 3.032,1.137 4.164,1.766 0.752,0.418 1.957,1.172 2.088,1.253 5.763,3.55 9.187,12.246 9.778,19.948 0.492,6.376 0.16,13.918 -10e-4,21.664 z M 133.362,117.32 c -3.902,-2.528 -12.18,-1.219 -14.3,1.3 -0.136,0.165 -0.758,1.145 -0.865,1.302 -1.284,1.867 -0.933,6.779 -0.867,8.231 6.354,0 12.711,0 19.066,0 0.272,-5.388 -0.379,-9.111 -3.034,-10.833 z"
         id="path5361"
         inkscape:connector-curvature="0"
         style="clip-rule:evenodd;fill:#000000;fill-rule:evenodd;fill-opacity:0.4566929" />
      <path
         d="m 210.824,118.62 c -0.156,0.98 -0.518,0.981 -2.165,1.736 -2.197,1.006 -5.347,1.836 -7.801,3.032 -3.429,1.671 -7.257,3.646 -9.532,5.198 0,15.312 0,30.622 0,45.933 0.02,0.039 -22.53,0.039 -22.614,-0.045 0,-24.698 0.08,-49.788 0.08,-74.484 4.463,-0.055 14.163,-0.008 18.633,0 0.415,2.329 0.747,4.16 1.301,6.931 6.099,-3.432 12.565,-6.499 19.933,-8.666 1.527,5.984 2.064,15.5 2.165,20.365 z"
         id="path5363"
         inkscape:connector-curvature="0"
         style="clip-rule:evenodd;fill:#000000;fill-rule:evenodd;fill-opacity:0.4566929" />
      <path
         d="m 295.477,142.956 -6.966,-4.742 c -0.008,-0.099 -0.009,-0.202 -0.019,-0.302 -0.228,-2.364 -0.683,-4.684 -1.329,-6.927 -0.029,-0.095 -0.065,-0.19 -0.092,-0.285 l 4.748,-7.145 c 0.397,-0.592 0.328,-1.508 -0.157,-2.251 l -6.19,-9.482 c -0.485,-0.742 -1.291,-1.166 -1.986,-1.036 l -8.389,1.586 c -0.077,-0.063 -0.147,-0.135 -0.224,-0.198 -1.731,-1.435 -3.593,-2.727 -5.581,-3.845 -0.085,-0.046 -0.176,-0.085 -0.26,-0.132 l -1.703,-8.551 c -0.142,-0.699 -0.83,-1.296 -1.694,-1.472 L 254.6,95.931 c -0.864,-0.177 -1.729,0.101 -2.129,0.688 l -4.762,7.067 c -0.098,0.005 -0.197,0.008 -0.296,0.017 -2.363,0.222 -4.679,0.674 -6.925,1.324 -0.099,0.029 -0.196,0.068 -0.295,0.097 l -7.065,-4.72 c -0.589,-0.392 -1.496,-0.321 -2.233,0.172 l -9.405,6.3 c -0.739,0.494 -1.158,1.31 -1.026,2.011 l 1.529,8.201 c -0.064,0.072 -0.136,0.144 -0.198,0.22 -1.545,1.861 -2.926,3.882 -4.11,6.041 -0.048,0.088 -0.087,0.179 -0.136,0.267 l -8.369,1.658 c -0.695,0.136 -1.291,0.83 -1.472,1.701 l -2.318,11.148 c -0.18,0.872 0.093,1.747 0.673,2.156 l 7.002,4.897 c 0.008,0.101 0.009,0.199 0.019,0.299 0.221,2.426 0.677,4.801 1.339,7.099 0.027,0.1 0.063,0.195 0.093,0.29 l -4.721,7.101 c -0.394,0.593 -0.328,1.506 0.158,2.253 l 6.189,9.478 c 0.484,0.743 1.291,1.168 1.987,1.038 l 8.31,-1.568 c 0.078,0.062 0.148,0.134 0.226,0.202 1.867,1.55 3.89,2.934 6.056,4.114 0.087,0.05 0.181,0.088 0.266,0.133 l 1.604,8.302 c 0.137,0.7 0.823,1.299 1.691,1.468 l 11.028,2.263 c 0.867,0.178 1.732,-0.105 2.138,-0.692 l 4.841,-7.092 c 0.098,-0.012 0.204,-0.012 0.302,-0.021 1.593,-0.169 3.161,-0.445 4.701,-0.813 -2.249,0.236 -4.555,0.235 -6.896,-0.098 -15.4,-2.185 -26.111,-16.443 -23.922,-31.841 2.186,-15.402 16.443,-26.115 31.845,-23.926 15.398,2.186 26.108,16.441 23.922,31.843 -0.502,3.541 -1.667,6.815 -3.313,9.758 1.129,-1.502 2.187,-3.073 3.096,-4.754 0.048,-0.09 0.087,-0.186 0.137,-0.276 l 8.311,-1.746 c 0.691,-0.149 1.285,-0.849 1.459,-1.722 l 2.231,-11.163 c 0.177,-0.879 -0.099,-1.748 -0.685,-2.149 z"
         id="path5365"
         inkscape:connector-curvature="0"
         style="fill:#000000;fill-opacity:0.4566929" />
    </g>
    <g
       id="g5357"
       style="filter:url(#filter5553);fill:#000000;fill-opacity:0.44705883">
      <path
         d="m 205.09201,999.00969 -2.711,-13.72016 c -0.2165,-1.07075 -0.94306,-1.93161 -1.80098,-2.10921 l -7.97303,-1.62924 c 1.85382,3.77075 3.25703,7.83726 4.08486,12.1643 0.81829,4.2353 1.02745,8.44562 0.73463,12.55252 l 6.80246,-4.6177 c 0.72509,-0.4909 1.07149,-1.5639 0.86306,-2.64051 z"
         id="path5333"
         inkscape:connector-curvature="0"
         style="fill:#000000;stroke-width:0.73389441;fill-opacity:0.44705883" />
      <path
         d="m 101.24448,998.53926 -8.090448,5.34794 c -0.735362,0.4865 -1.087631,1.5514 -0.886544,2.628 l 2.605325,13.7415 c 0.204023,1.0781 0.930578,1.9441 1.789235,2.1341 l 9.511272,2.0601 c -1.93822,-3.8669 -3.39793,-8.0501 -4.25439,-12.5049 -0.8726,-4.5295 -1.06561,-9.0298 -0.67445,-13.40674 z"
         id="path5335"
         inkscape:connector-curvature="0"
         style="fill:#000000;stroke-width:0.73389441;fill-opacity:0.44705883" />
      <g
         id="g5347"
         transform="matrix(0.73389443,0,0,0.73389443,-107.05457,946.40634)"
         style="fill:#000000;fill-opacity:0.44705883">
        <path
           style="clip-rule:evenodd;fill:#000000;fill-rule:evenodd;fill-opacity:0.44705883"
           inkscape:connector-curvature="0"
           id="path5337"
           d="m 476.042,105.035 c -13.288,0 -26.575,0 -39.866,0 -0.029,1.497 -0.279,3.507 0,5.199 0.098,0.597 0.181,1.854 0.433,2.6 0.073,0.217 0.666,1.447 0.867,1.734 1.186,1.683 6.129,3.238 9.535,3.466 8.127,0.551 19.906,-2.069 24.698,-3.466 1.814,4.974 2.684,10.893 3.466,16.898 -10.651,3.246 -22.934,5.591 -34.666,4.334 -1.521,-0.163 -2.315,-0.038 -4.333,-0.433 -0.225,-0.045 -3.496,-0.816 -5.634,-1.733 -1.768,-0.76 -5.379,-2.721 -7.365,-4.333 -0.923,-0.747 -1.904,-1.424 -2.601,-2.167 -0.371,-0.397 -1.935,-2.245 -2.167,-2.602 -0.552,-0.838 -1.488,-3.082 -2.167,-4.765 -0.369,-0.916 -0.607,-1.736 -0.866,-2.6 -2.797,-9.297 -3.104,-33.853 0.866,-42.466 0.516,-1.121 1.268,-3.842 2.167,-5.201 0.313,-0.471 1.608,-1.302 2.167,-2.166 2.132,-3.295 7.521,-6.007 12.134,-7.364 0.847,-0.253 2.936,-0.964 4.766,-1.302 2.924,-0.54 9.005,-0.536 10.835,-0.432 1.785,0.101 3.625,0.207 5.199,0.432 0.637,0.09 3.393,0.463 4.771,0.964 2.01,0.73 5.936,2.597 6.494,2.937 1.96,1.188 4.202,3.164 5.201,4.331 0.674,0.791 1.527,2.35 2.167,3.468 4.545,7.974 4.152,20.577 3.899,34.667 z M 455.24,82.502 c -0.092,-1.153 -0.622,-2.573 -0.864,-3.034 -0.856,-1.627 -2.422,-2.495 -2.6,-2.6 -1.827,-1.057 -6.661,-1.354 -9.102,-0.868 -5.467,1.096 -7.251,6.491 -6.499,12.136 6.355,0 12.711,0 19.064,0 0.076,-1.651 0.153,-3.753 0.001,-5.634 z" />
        <path
           style="clip-rule:evenodd;fill:#000000;fill-rule:evenodd;fill-opacity:0.44705883"
           inkscape:connector-curvature="0"
           id="path5339"
           d="m 544.372,134.5 c -2.252,0 -5.457,0 -8.668,0 -2.957,0 -7.574,0.081 -8.297,-0.253 -2.041,-0.943 -1.791,-2.402 -2.534,-4.514 -7.136,3.836 -19.027,8.984 -29.031,5.201 -0.861,-0.325 -3.793,-1.747 -5.202,-3.034 -3.448,-3.145 -5.979,-9.331 -6.502,-15.167 -0.871,-9.791 1.849,-17.532 7.802,-21.232 1.55,-0.963 5.079,-2.65 8.231,-3.034 7.259,-0.882 12.745,0.633 22.1,0 0.146,-1.487 0.076,-3.61 0,-5.632 -0.092,-2.396 0.044,-4.311 -0.431,-5.633 -0.574,-1.588 -2.213,-3.12 -3.902,-3.899 -1.436,-0.663 -5.7,-0.866 -8.234,-0.866 -7.261,0 -16.185,1.491 -20.797,2.166 -0.595,-5.762 -2.066,-10.646 -2.602,-16.467 6.451,-2.675 15.934,-2.952 23.834,-3.899 2.175,-0.264 4.657,-0.126 7.368,0 4.895,0.226 8.938,0.853 12.998,2.165 3.375,1.093 4.776,1.892 6.933,3.468 0.994,0.727 2.104,1.88 2.498,2.341 0.687,0.799 2.035,2.833 2.701,4.591 1.404,3.711 1.963,9.859 2.169,14.735 0.629,14.961 -0.133,35.048 -0.434,48.963 z M 506.67,108.935 c -1.725,1.667 -1.698,6.921 0,8.667 1.193,1.226 2.673,1.314 2.603,1.3 4.335,0.928 11.487,-1.586 13.432,-3.468 -1.003,-1.74 -0.149,-5.339 -0.434,-7.799 -5.108,0.586 -12.98,-1.227 -15.601,1.3 z" />
        <path
           style="clip-rule:evenodd;fill:#000000;fill-rule:evenodd;fill-opacity:0.44705883"
           inkscape:connector-curvature="0"
           id="path5341"
           d="m 599.699,79.035 c -6.827,3.141 -13.984,5.95 -19.933,9.968 0,15.164 0,30.333 0,45.498 -7.365,0 -14.73,0 -22.099,0 0,-24.988 0,-49.978 0,-74.964 4.985,-0.008 13.527,-0.045 17.735,0.271 0.893,0 0.726,1.114 1.331,3.195 0.328,1.129 0.506,2.429 0.866,3.468 0.128,0.47 0.506,0.243 0.866,0 1.947,-1.318 5.082,-3.07 7.802,-4.334 3.244,-1.509 7.287,-2.885 10.831,-3.899 0.368,-0.081 0.407,0.168 0.434,0.432 0.7,3.308 1.703,13.053 2.167,20.365 z" />
        <path
           style="clip-rule:evenodd;fill:#000000;fill-rule:evenodd;fill-opacity:0.44705883"
           inkscape:connector-curvature="0"
           id="path5343"
           d="M 414.082,63.485 C 406.7,27.755 371.75,4.772 336.017,12.156 c -35.731,7.382 -58.712,42.334 -51.329,78.065 6.469,31.314 34.113,52.83 64.897,52.705 -21.852,-3.588 -40.278,-20.23 -45.025,-43.209 -6.156,-29.795 13.004,-58.939 42.799,-65.095 29.794,-6.157 58.935,13.005 65.091,42.8 1.104,5.335 1.38,10.647 0.944,15.813 2.422,-9.441 2.795,-19.561 0.688,-29.75 z" />
        <path
           style="fill:#000000;fill-opacity:0.44705883"
           inkscape:connector-curvature="0"
           id="path5345"
           d="M 354.042,11.314 347.276,1.269 c -0.67,-0.993 -2.131,-1.472 -3.6,-1.188 l -18.704,3.632 c -1.471,0.284 -2.639,1.272 -2.885,2.445 l -2.509,12.084 c 5.347,-2.709 11.145,-4.742 17.32,-5.934 5.787,-1.11 11.534,-1.397 17.144,-0.994 z" />
      </g>
      <path
         d="m 117.99269,966.12902 -9.08928,-1.77676 c -0.8616,-0.16439 -1.86997,0.34566 -2.48277,1.25202 l -7.823313,11.59113 c -0.614269,0.91297 -0.711144,2.03436 -0.228241,2.76532 l 5.113774,7.8013 c 2.76825,-8.39356 7.79323,-15.89175 14.50983,-21.63301 z"
         id="path5349"
         inkscape:connector-curvature="0"
         style="fill:#000000;stroke-width:0.73389441;fill-opacity:0.44705883" />
      <path
         d="m 112.13034,1033.5644 -1.88684,9.396 c -0.171,0.8616 0.33539,1.8641 1.24762,2.4821 l 11.58012,7.8372 c 0.91076,0.615 2.03289,0.7082 2.76898,0.2319 l 7.79763,-5.0543 c -8.38694,-2.8893 -15.83964,-8.0516 -21.50751,-14.8929 z"
         id="path5351"
         inkscape:connector-curvature="0"
         style="fill:#000000;stroke-width:0.73389441;fill-opacity:0.44705883" />
      <path
         d="m 185.5785,971.04905 1.63878,-8.15724 c 0.1732,-0.85425 -0.33465,-1.86409 -1.24542,-2.47763 l -11.58159,-7.83726 c -0.90709,-0.6106 -2.03362,-0.70674 -2.76898,-0.23337 l -7.22079,4.68151 c 8.18072,2.7022 15.50206,7.55397 21.178,14.02399 z"
         id="path5353"
         inkscape:connector-curvature="0"
         style="fill:#000000;stroke-width:0.73389441;fill-opacity:0.44705883" />
      <path
         d="m 180.65773,1013.1614 c 0.10789,-9.4731 -7.70809,-14.93771 -15.05804,-16.8928 -2.1283,-0.56584 -4.28448,-0.81022 -6.40617,-0.72216 -8.96525,0.36768 -16.33429,6.52946 -18.77302,15.70016 -1.51769,5.7031 -0.8748,11.4671 1.80685,16.225 2.6545,4.7087 7.10703,8.0956 12.53198,9.5391 2.27508,0.6055 4.56556,0.8675 6.80834,0.775 3.48747,-0.1423 8.26879,-1.2226 12.36392,-5.3001 l -20.21439,-5.3788 c -0.89241,-0.2363 -1.42449,-1.1529 -1.18671,-2.0446 l 2.31324,-8.6908 c 0.23705,-0.8917 1.15075,-1.4215 2.0439,-1.1852 l 32.76912,8.7179 c 0.73022,-2.7396 1.07882,-5.6077 1.00763,-8.5322 l -8.44052,-0.5233 c -0.88654,-0.055 -1.5764,-0.7963 -1.56613,-1.6872 z"
         id="path5355"
         inkscape:connector-curvature="0"
         style="fill:#000000;stroke-width:0.73389441;fill-opacity:0.44705883" />
    </g>
    <path
       d="m 180.65773,1013.1614 c 0.10789,-9.4731 -7.70809,-14.93771 -15.05804,-16.8928 -2.1283,-0.56584 -4.28448,-0.81022 -6.40617,-0.72216 -8.96525,0.36768 -16.33429,6.52946 -18.77302,15.70016 -1.51769,5.7031 -0.8748,11.4671 1.80685,16.225 2.6545,4.7087 7.10703,8.0956 12.53198,9.5391 2.27508,0.6055 4.56556,0.8675 6.80834,0.775 3.48747,-0.1423 8.26879,-1.2226 12.36392,-5.3001 l -20.21439,-5.3788 c -0.89241,-0.2363 -1.42449,-1.1529 -1.18671,-2.0446 l 2.31324,-8.6908 c 0.23705,-0.8917 1.15075,-1.4215 2.0439,-1.1852 l 32.76912,8.7179 c 0.73022,-2.7396 1.07882,-5.6077 1.00763,-8.5322 l -8.44052,-0.5233 c -0.88654,-0.055 -1.5764,-0.7963 -1.56613,-1.6872 z"
       id="path1197"
       inkscape:connector-curvature="0"
       style="fill:#ffffff;fill-opacity:1;stroke-width:0.73389441" />
    <path
       inkscape:connector-curvature="0"
       style="fill:#fefefe;fill-opacity:1;stroke-width:0.73389441"
       d="m 145.96632,946.41073 c -0.25981,-0.015 -0.52883,0.003 -0.79835,0.0549 l -13.72741,2.66602 c -1.07957,0.20843 -1.93617,0.93357 -2.11671,1.79443 l -1.78161,8.58215 c -3.5736,1.79772 -6.86663,4.0094 -9.8291,6.56617 l -8.80921,-1.72303 c -0.8616,-0.16439 -1.87011,0.34608 -2.4829,1.25244 l -7.824107,11.59241 c -0.614269,0.91297 -0.70995,2.03393 -0.227053,2.76489 l 4.97315,7.58973 c -1.18711,3.56873 -1.96815,7.29454 -2.29431,11.11633 l -7.895512,5.22033 c -0.735356,0.4865 -1.087313,1.551 -0.886228,2.6276 l 2.605593,13.7421 c 0.204019,1.0781 0.930282,1.9431 1.788938,2.1331 l 9.277949,2.0087 c 1.69053,3.405 3.75992,6.5556 6.14136,9.4135 l -1.83655,9.1479 c -0.171,0.8616 0.33472,1.8649 1.24695,2.4829 l 11.57959,7.8369 c 0.91076,0.615 2.03246,0.7071 2.76856,0.2307 l 7.58056,-4.9127 c 5.08974,1.7766 10.51622,2.7235 16.08399,2.7008 -16.03706,-2.6332 -29.55943,-14.846 -33.04321,-31.7102 -4.51786,-21.86639 9.54352,-43.25619 31.40991,-47.77405 21.86565,-4.51859 43.25252,9.54538 47.77038,31.41175 0.5515,2.6651 0.81422,5.3203 0.82947,7.9413 -0.57344,7.6144 -0.0193,16.7872 1.31653,21.2274 0.19008,0.6341 0.36457,1.2357 0.63538,1.908 0.49831,1.2351 1.18607,2.8823 1.59119,3.4973 0.17027,0.262 1.31708,1.6166 1.58935,1.908 0.51153,0.5453 1.23241,1.043 1.90979,1.5911 1.45752,1.1832 4.10774,2.6228 5.40527,3.1806 1.56907,0.673 3.96939,1.2377 4.13453,1.2707 1.48099,0.2898 2.06429,0.199 3.18054,0.3186 8.61005,0.9225 17.62396,-0.7983 25.44068,-3.1805 -0.57391,-4.407 -1.21206,-8.7514 -2.54334,-12.4017 -3.51682,1.0252 -12.16125,2.9477 -18.12562,2.5433 -2.49963,-0.1673 -6.12789,-1.3082 -6.99828,-2.5433 -0.14752,-0.2107 -0.58178,-1.1134 -0.63538,-1.2726 -0.18495,-0.5475 -0.24671,-1.4699 -0.3186,-1.908 -0.20476,-1.2418 -0.0213,-2.7172 0,-3.8159 h 29.25659 c 0.18568,-10.3405 0.47544,-19.5904 -2.86011,-25.44253 -0.46969,-0.82049 -1.09655,-1.96465 -1.59119,-2.54516 -0.73315,-0.85646 -2.37747,-2.30501 -3.81592,-3.17688 -0.40951,-0.24952 -3.2911,-1.62123 -4.76623,-2.15699 -1.0113,-0.36768 -3.03348,-0.64068 -3.50098,-0.70678 -1.15515,-0.16513 -2.50592,-0.24267 -3.81591,-0.31677 -1.34304,-0.0763 -5.80636,-0.0795 -7.95227,0.31677 -1.34304,0.24805 -2.87571,0.77013 -3.49732,0.95581 -2.20424,0.64841 -4.6389,1.72299 -6.5094,3.05786 l -1.61865,-8.18665 c -0.21651,-1.07075 -0.94384,-1.93177 -1.80176,-2.10937 l -7.6117,-1.5564 c -1.95151,-4.01575 -4.42205,-7.69008 -7.31323,-10.94971 l 1.56372,-7.78198 c 0.17321,-0.85425 -0.33617,-1.86388 -1.24695,-2.47741 l -11.58141,-7.83692 c -0.9071,-0.6106 -2.0332,-0.70774 -2.76856,-0.23437 l -6.9104,4.48059 c -3.87966,-1.2995 -7.94784,-2.11289 -12.12158,-2.38953 l -4.77906,-7.09717 c -0.36877,-0.54657 -1.06444,-0.88141 -1.84386,-0.92651 z m 123.92394,42.62879 c -0.9036,-0.0127 -1.75803,0.009 -2.55615,0.1062 -5.79777,0.695 -12.75771,0.89878 -17.49206,2.86194 0.39337,4.272 1.47313,7.8563 1.90979,12.08494 3.38473,-0.4953 9.93303,-1.5893 15.26184,-1.5893 1.85969,0 4.99044,0.1487 6.04431,0.6353 1.23955,0.5717 2.44251,1.6966 2.86377,2.862 0.34861,0.9702 0.24744,2.3743 0.31494,4.1327 0.0558,1.4839 0.10715,3.0432 0,4.1345 -6.86558,0.4645 -10.89031,-0.6473 -16.21765,0 -2.31323,0.2818 -4.90495,1.5199 -6.04248,2.2266 -4.36888,2.7153 -6.36493,8.3967 -5.72571,15.5822 0.38383,4.283 2.24127,8.8229 4.77173,11.131 1.03406,0.9445 3.18587,1.988 3.81775,2.2266 7.34188,2.7763 16.06909,-1.0026 21.30615,-3.8178 0.54529,1.55 0.36247,2.6203 1.86035,3.3124 0.53061,0.2456 3.91814,0.1868 6.08826,0.1868 h 6.36109 c 0.2209,-10.2121 0.78021,-24.9547 0.3186,-35.9345 -0.15118,-3.5785 -0.5608,-8.0907 -1.59119,-10.81419 -0.48877,-1.29018 -1.47884,-2.78275 -1.98303,-3.36914 -0.28915,-0.33832 -1.10339,-1.18399 -1.83289,-1.71753 -1.583,-1.15662 -2.6116,-1.74302 -5.08849,-2.54517 -2.97961,-0.96287 -5.94556,-1.42349 -9.53797,-1.58935 -0.99479,-0.0462 -1.94735,-0.0935 -2.85096,-0.1062 z m 61.42274,0.10437 c -0.041,-0.0118 -0.0937,-0.0112 -0.16113,0.004 -2.60094,0.74417 -5.56786,1.75266 -7.94861,2.86011 -1.9962,0.92764 -4.29682,2.21326 -5.72571,3.18054 -0.2642,0.17833 -0.54148,0.34493 -0.63538,0 -0.2642,-0.76252 -0.39466,-1.71659 -0.63537,-2.54516 -0.44401,-1.52723 -0.32242,-2.34375 -0.97779,-2.34375 -3.08822,-0.23189 -9.35667,-0.20559 -13.01513,-0.19959 v 55.01586 h 16.21948 v -33.3911 c 4.36594,-2.9487 9.618,-5.01 14.6283,-7.3151 -0.34054,-5.36621 -1.07747,-12.51731 -1.59119,-14.94503 -0.0149,-0.14531 -0.0346,-0.28503 -0.15747,-0.32043 z m -111.88111,12.87781 c 1.81639,-0.053 4.06457,0.2166 5.07019,0.7983 0.13063,0.077 1.27974,0.7139 1.90796,1.908 0.1776,0.3383 0.56605,1.3804 0.63355,2.2266 0.11154,1.3805 0.0558,2.9228 0,4.1345 H 213.0525 c -0.55189,-4.1429 0.75586,-8.1019 4.76806,-8.9063 0.44786,-0.089 1.00587,-0.1435 1.61133,-0.1611 z m 50.39612,23.3203 c 2.15334,0.047 4.53432,0.2718 6.40869,0.057 0.20916,1.8053 -0.4175,4.4469 0.31861,5.7239 -1.42743,1.3812 -6.67514,3.2262 -9.85657,2.5452 0.0514,0.01 -1.03609,-0.054 -1.91163,-0.954 -1.24614,-1.2814 -1.26596,-5.1377 0,-6.3611 0.96177,-0.9272 2.88756,-1.0578 5.0409,-1.0107 z"
       id="path5568" />
    <g
       id="g5293"
       transform="matrix(0.73389443,0,0,0.73389443,-107.05457,946.40634)"
       style="fill:#cccccc">
      <path
         style="clip-rule:evenodd;fill:#cccccc;fill-rule:evenodd"
         inkscape:connector-curvature="0"
         id="path1177"
         d="m 31.631,72.256 c 9.968,0 19.934,0 29.902,0 2.767,8.488 5.208,17.033 7.798,25.565 1.928,6.347 4.202,12.673 6.067,19.065 0.646,2.213 1.081,4.373 1.732,6.501 5.208,17.021 10.791,33.908 15.601,51.131 -7.946,0 -15.89,0 -23.833,0 -1.962,-6.562 -3.593,-13.449 -5.633,-19.932 -0.875,0.009 -32.529,0.177 -33.798,0.432 -2.209,6.171 -3.687,13.068 -5.633,19.5 -7.944,0 -15.887,0 -23.833,0 7.449,-25.375 15.061,-50.612 22.966,-75.832 2.641,-8.427 4.838,-16.878 7.8,-25.131 -0.019,-0.741 0.322,-1.122 0.864,-1.299 z M 45.5,95.222 c -3.343,12.943 -7.267,26.76 -10.833,39.863 0.746,0.051 21.876,-0.032 22.966,0 -3.647,-13.828 -7.256,-27.699 -11.266,-41.163 -0.411,0.163 -0.761,0.88 -0.867,1.3 z" />
      <path
         style="clip-rule:evenodd;fill:#cccccc;fill-rule:evenodd"
         inkscape:connector-curvature="0"
         id="path1179"
         d="m 157.193,145.054 c -13.287,0 -26.577,0 -39.864,0 -0.138,2.367 0.005,4.263 0.432,6.065 0.235,0.987 0.413,1.146 0.868,2.168 1.14,2.562 4.025,3.679 4.766,3.899 3.53,1.051 7.021,0.829 11.7,0.432 4.646,-0.392 9.005,-0.851 13.001,-1.731 2.021,-0.445 3.829,-0.789 5.2,-0.868 1.232,5.269 2.388,11.521 3.033,16.467 -6.996,2.271 -15.556,4.185 -24.266,4.768 -6.972,0.466 -13.888,-0.329 -19.531,-2.362 -1.024,-0.369 -2.126,-0.702 -3.002,-1.105 -1.391,-0.641 -3.153,-1.884 -4.765,-3.032 -0.154,-0.107 -2.892,-2.718 -4.335,-4.767 -1.441,-2.047 -4.045,-6.715 -4.766,-10.399 -0.837,-4.283 -0.435,-9.779 -0.435,-15.165 0,-5.508 -0.429,-11.201 0,-16.034 0.368,-4.105 1.717,-8.048 3.468,-11.268 1.232,-2.261 2.459,-4.608 3.9,-6.065 0.359,-0.362 2.241,-1.918 2.6,-2.169 2.991,-2.064 7.451,-3.579 11.701,-4.765 4.885,-1.365 13.355,-1.036 19.066,0 1.902,0.345 3.535,0.706 5.2,1.3 1.47,0.524 3.032,1.137 4.164,1.766 0.752,0.418 1.957,1.172 2.088,1.253 5.763,3.55 9.187,12.246 9.778,19.948 0.492,6.376 0.16,13.918 -10e-4,21.664 z M 133.362,117.32 c -3.902,-2.528 -12.18,-1.219 -14.3,1.3 -0.136,0.165 -0.758,1.145 -0.865,1.302 -1.284,1.867 -0.933,6.779 -0.867,8.231 6.354,0 12.711,0 19.066,0 0.272,-5.388 -0.379,-9.111 -3.034,-10.833 z" />
      <path
         style="clip-rule:evenodd;fill:#cccccc;fill-rule:evenodd"
         inkscape:connector-curvature="0"
         id="path1181"
         d="m 210.824,118.62 c -0.156,0.98 -0.518,0.981 -2.165,1.736 -2.197,1.006 -5.347,1.836 -7.801,3.032 -3.429,1.671 -7.257,3.646 -9.532,5.198 0,15.312 0,30.622 0,45.933 0.02,0.039 -22.53,0.039 -22.614,-0.045 0,-24.698 0.08,-49.788 0.08,-74.484 4.463,-0.055 14.163,-0.008 18.633,0 0.415,2.329 0.747,4.16 1.301,6.931 6.099,-3.432 12.565,-6.499 19.933,-8.666 1.527,5.984 2.064,15.5 2.165,20.365 z" />
      <path
         style="fill:#cccccc"
         inkscape:connector-curvature="0"
         id="path1199"
         d="m 295.477,142.956 -6.966,-4.742 c -0.008,-0.099 -0.009,-0.202 -0.019,-0.302 -0.228,-2.364 -0.683,-4.684 -1.329,-6.927 -0.029,-0.095 -0.065,-0.19 -0.092,-0.285 l 4.748,-7.145 c 0.397,-0.592 0.328,-1.508 -0.157,-2.251 l -6.19,-9.482 c -0.485,-0.742 -1.291,-1.166 -1.986,-1.036 l -8.389,1.586 c -0.077,-0.063 -0.147,-0.135 -0.224,-0.198 -1.731,-1.435 -3.593,-2.727 -5.581,-3.845 -0.085,-0.046 -0.176,-0.085 -0.26,-0.132 l -1.703,-8.551 c -0.142,-0.699 -0.83,-1.296 -1.694,-1.472 L 254.6,95.931 c -0.864,-0.177 -1.729,0.101 -2.129,0.688 l -4.762,7.067 c -0.098,0.005 -0.197,0.008 -0.296,0.017 -2.363,0.222 -4.679,0.674 -6.925,1.324 -0.099,0.029 -0.196,0.068 -0.295,0.097 l -7.065,-4.72 c -0.589,-0.392 -1.496,-0.321 -2.233,0.172 l -9.405,6.3 c -0.739,0.494 -1.158,1.31 -1.026,2.011 l 1.529,8.201 c -0.064,0.072 -0.136,0.144 -0.198,0.22 -1.545,1.861 -2.926,3.882 -4.11,6.041 -0.048,0.088 -0.087,0.179 -0.136,0.267 l -8.369,1.658 c -0.695,0.136 -1.291,0.83 -1.472,1.701 l -2.318,11.148 c -0.18,0.872 0.093,1.747 0.673,2.156 l 7.002,4.897 c 0.008,0.101 0.009,0.199 0.019,0.299 0.221,2.426 0.677,4.801 1.339,7.099 0.027,0.1 0.063,0.195 0.093,0.29 l -4.721,7.101 c -0.394,0.593 -0.328,1.506 0.158,2.253 l 6.189,9.478 c 0.484,0.743 1.291,1.168 1.987,1.038 l 8.31,-1.568 c 0.078,0.062 0.148,0.134 0.226,0.202 1.867,1.55 3.89,2.934 6.056,4.114 0.087,0.05 0.181,0.088 0.266,0.133 l 1.604,8.302 c 0.137,0.7 0.823,1.299 1.691,1.468 l 11.028,2.263 c 0.867,0.178 1.732,-0.105 2.138,-0.692 l 4.841,-7.092 c 0.098,-0.012 0.204,-0.012 0.302,-0.021 1.593,-0.169 3.161,-0.445 4.701,-0.813 -2.249,0.236 -4.555,0.235 -6.896,-0.098 -15.4,-2.185 -26.111,-16.443 -23.922,-31.841 2.186,-15.402 16.443,-26.115 31.845,-23.926 15.398,2.186 26.108,16.441 23.922,31.843 -0.502,3.541 -1.667,6.815 -3.313,9.758 1.129,-1.502 2.187,-3.073 3.096,-4.754 0.048,-0.09 0.087,-0.186 0.137,-0.276 l 8.311,-1.746 c 0.691,-0.149 1.285,-0.849 1.459,-1.722 l 2.231,-11.163 c 0.177,-0.879 -0.099,-1.748 -0.685,-2.149 z" />
    </g>
  </g>
</svg>
